<?xml version="1.0" encoding="utf-8"?>
<!-- Generator: Adobe Illustrator 28.0.0, SVG Export Plug-In . SVG Version: 6.00 Build 0)  -->
<svg version="1.1" id="Layer_1" xmlns="http://www.w3.org/2000/svg" xmlns:xlink="http://www.w3.org/1999/xlink" x="0px" y="0px"
	 viewBox="0 0 594.7 594.7" style="enable-background:new 0 0 594.7 594.7;" xml:space="preserve">
<style type="text/css">
	.st0{fill:#29B5E8;}
</style>
<g>
	<path class="st0" d="M372.2,380.7v129.1H66.5V200.2h90.4c8.4,0,15.2-6.8,15.2-15.2V94.6H234c10.5,0,19.1-8.5,19.1-19.1v0
		c0-10.5-8.5-19.1-19.1-19.1h-83.2c-5.2,0-10.2,2.2-13.8,6l-103.4,109c-3.4,3.5-5.2,8.2-5.2,13.1v344.2c0,10.5,8.5,19.1,19.1,19.1
		h343.9c10.5,0,19.1-8.5,19.1-19.1V380.7c0-10.5-8.5-19.1-19.1-19.1h0C380.7,361.6,372.2,370.1,372.2,380.7z M141.6,113v56.7H87.8
		L141.6,113z"/>
	<g id="advanced-analytics-icon_00000104703161234886073180000003539288000321181839_">
		<g>
			<g>
				<path class="st0" d="M553.4,316H297V59.7c0.3-6.8-4.9-12.6-11.7-12.9c-6.8-0.3-12.6,4.9-12.9,11.7c0,0.4,0,0.8,0,1.1v256.4h-5.6
					c-6.8-0.3-12.6,4.9-12.9,11.7c-0.3,6.8,4.9,12.6,11.7,12.9c0.4,0,0.8,0,1.1,0h5.6v5.6c-0.3,6.8,4.9,12.6,11.7,12.9
					s12.6-4.9,12.9-11.7c0-0.4,0-0.8,0-1.1v-5.6h256.4c6.8,0.3,12.6-4.9,12.9-11.7c0.3-6.8-4.9-12.6-11.7-12.9
					C554.1,316.1,553.8,316.1,553.4,316L553.4,316z"/>
				<path class="st0" d="M411.7,85.1h33.4c4.6,0,8.3,4.7,8.3,10.5v189.8c0,5.8-3.7,10.5-8.3,10.5h-33.4c-4.6,0-8.3-4.7-8.3-10.5
					V95.7C403.4,89.8,407.1,85.1,411.7,85.1z"/>
				<path class="st0" d="M330.3,148.4h33.4c4.6,0,8.3,4.7,8.3,10.5v126.5c0,5.8-3.7,10.5-8.3,10.5h-33.4c-4.6,0-8.3-4.7-8.3-10.5
					V158.9C322,153.1,325.7,148.4,330.3,148.4z"/>
				<path class="st0" d="M493.1,197.5h33.4c4.6,0,8.3,3.1,8.3,7V289c0,3.9-3.7,7-8.3,7h-33.4c-4.6,0-8.3-3.1-8.3-7v-84.4
					C484.8,200.7,488.5,197.5,493.1,197.5z"/>
			</g>
		</g>
	</g>
</g>
</svg>
